# xmcd
#
# Track frame offsets:
#	150
#	8843
#	20485
#	32133
#	42260
#	53508
#	63818
#	73708
#	86693
#	97748
#	108420
#	119398
#
# Disc length: 1745 seconds
#
# Revision: 1
# Processed by: cddbd v1.5.2PL0 Copyright (c) Steve Scherf et al.
# Submitted via: EZCDAudioConverter 8.3.2.1
#
DISCID=8f06cf0c
DTITLE=Patsy Cline - Stop, Look and listen
DYEAR=1986
DGENRE=Country
TTITLE0=Ain't no wheels on this ship
TTITLE1=Never no more
TTITLE2=In care of the blues
TTITLE3=Three Cigaretts (In an Ashtray)
TTITLE4=Just out of reach (Of my two open arms)
TTITLE5=Too many secrets
TTITLE6=Turn the cards sloyly
TTITLE7=If I could see the world (through the eyes of a child)
TTITLE8=Don't ever leave me again
TTITLE9=Stop, Look and Listen
TTITLE10=Shoes
TTITLE11=A poor man's roses (Or a rich man's gold)
EXTD=
EXTT0=
EXTT1=
EXTT2=
EXTT3=
EXTT4=
EXTT5=
EXTT6=
EXTT7=
EXTT8=
EXTT9=
EXTT10=
EXTT11=
PLAYORDER=
